<?xml version="1.0" standalone="no"?>
<!DOCTYPE svg PUBLIC "-//W3C//DTD SVG 20010904//EN"
 "http://www.w3.org/TR/2001/REC-SVG-20010904/DTD/svg10.dtd">
<svg version="1.0" xmlns="http://www.w3.org/2000/svg"
 width="700.000000pt" height="700.000000pt" viewBox="0 0 700.000000 700.000000"
 preserveAspectRatio="xMidYMid meet">
<metadata>
Created by potrace 1.11, written by Peter Selinger 2001-2013
</metadata>
<g transform="translate(0.000000,700.000000) scale(0.100000,-0.100000)"
fill="#000000" stroke="none">
<path d="M3417 6944 c-1 -1 -58 -5 -127 -9 -69 -4 -127 -8 -130 -10 -3 -2 -34
-6 -70 -9 -36 -4 -77 -9 -90 -11 -14 -3 -63 -12 -110 -20 -47 -8 -139 -29
-205 -45 -66 -17 -127 -33 -135 -34 -32 -8 -209 -68 -270 -92 -562 -223 -1033
-557 -1410 -1003 -25 -29 -50 -58 -55 -65 -82 -91 -365 -526 -365 -560 0 -3
-10 -23 -23 -44 -25 -40 -97 -201 -145 -322 -48 -121 -134 -416 -157 -540 -62
-325 -79 -578 -61 -900 4 -74 9 -146 11 -160 2 -14 6 -47 10 -75 36 -282 105
-547 212 -820 112 -285 304 -626 468 -830 22 -28 60 -77 85 -110 43 -57 322
-344 405 -416 257 -224 592 -433 921 -574 121 -52 430 -157 504 -171 8 -2 56
-12 105 -23 95 -22 106 -23 255 -47 154 -24 242 -29 490 -29 325 0 509 20 790
87 172 41 470 137 495 159 5 5 15 9 22 9 37 0 486 233 514 266 6 8 17 14 23
14 10 0 208 139 292 205 217 171 512 479 644 670 8 12 33 49 55 81 22 33 42
61 45 64 31 29 221 378 275 505 62 144 132 337 161 444 20 71 52 201 59 238 2
15 7 39 10 53 25 123 38 212 52 357 10 100 10 523 0 628 -20 215 -76 507 -128
670 -97 305 -202 544 -342 780 -337 567 -845 1040 -1427 1327 -350 172 -748
294 -1095 333 -32 4 -67 9 -77 10 -48 10 -473 26 -481 19z"/>
</g>
</svg>
